<svg width="167" height="47" viewBox="0 0 167 47" fill="none" xmlns="http://www.w3.org/2000/svg">
<path d="M35.6567 20.622C36.8475 18.5808 37.5315 16.1954 37.5315 13.6469C37.5315 6.10992 31.5489 0 24.169 0C16.789 0 10.8064 6.10992 10.8064 13.6469C10.8064 16.1954 11.4904 18.5808 12.6812 20.622L19.9674 20.622C17.6776 19.1803 16.1514 16.5956 16.1514 13.6469C16.1514 9.1247 19.741 5.45875 24.169 5.45875C28.5969 5.45875 32.1865 9.1247 32.1865 13.6469C32.1865 16.5956 30.6603 19.1803 28.3705 20.622H35.6567Z" fill="#FF5A5F"/>
<path d="M81.4796 46.7027V26.0807L115.925 26.0807V32.7525H87.4185V38.2113L143.244 38.2113V46.7027H148.589V38.2113L167 38.2113V32.7525L121.27 32.7525V4.85223L92.7635 4.85223V10.311L115.925 10.311V20.622L81.4796 20.622V1.21306H76.1345V46.7027H81.4796Z" fill="#FF5A5F"/>
<path d="M155.122 6.67181L130.179 6.67181V1.21306L160.467 1.21306V16.9828L135.524 16.9828V21.835H161.655V27.2938L130.179 27.2938V11.524L155.122 11.524V6.67181Z" fill="#FF5A5F"/>
<path fill-rule="evenodd" clip-rule="evenodd" d="M0.710205 26.0807V31.5395H14.3697V35.7852H6.05524V41.2439H35.4239L30.6637 46.7027H37.8212L42.5807 41.2447L42.5796 41.2437V35.7852H34.5621V31.5395H47.6268C50.0647 34.8542 53.9461 36.9982 58.3178 36.9982C65.6978 36.9982 71.6804 30.8883 71.6804 23.3513C71.6804 15.8144 65.6978 9.70445 58.3178 9.70445C51.8531 9.70445 46.4606 14.3929 45.2225 20.622H50.7565C51.8571 17.4417 54.8269 15.1632 58.3178 15.1632C62.7458 15.1632 66.3354 18.8292 66.3354 23.3513C66.3354 27.8735 62.7458 31.5395 58.3178 31.5395C54.8269 31.5395 51.8571 29.261 50.7565 26.0807H0.710205ZM29.217 31.5395V35.7852H19.7148V31.5395H29.217Z" fill="#FF5A5F"/>
</svg>
