<svg width="95" height="27" viewBox="0 0 95 27" fill="none" xmlns="http://www.w3.org/2000/svg">
<path d="M19.869 11.8519C20.5461 10.7156 20.935 9.38764 20.935 7.96883C20.935 3.7729 17.5335 0.371429 13.3376 0.371429C9.14167 0.371429 5.7402 3.7729 5.7402 7.96883C5.7402 9.38764 6.12912 10.7156 6.80616 11.8519L10.9487 11.8519C9.64691 11.0494 8.77916 9.61044 8.77916 7.96883C8.77916 5.45127 10.82 3.41039 13.3376 3.41039C15.8552 3.41039 17.896 5.45127 17.896 7.96883C17.896 9.61044 17.0283 11.0494 15.7265 11.8519H19.869Z" fill="#FF5A5F"/>
<path d="M45.922 26.3714V14.8909L65.5064 14.8909V18.6052H49.2986V21.6442L81.0389 21.6442V26.3714H84.0779V21.6442L94.5454 21.6442V18.6052L68.5454 18.6052V3.07273L52.3376 3.07273V6.11169L65.5064 6.11169V11.852L45.922 11.8519V1.04675H42.8831V26.3714H45.922Z" fill="#FF5A5F"/>
<path d="M87.7921 4.08571L73.6103 4.08571V1.04675L90.8311 1.04676V9.82598L76.6493 9.82597V12.5273L91.5064 12.5273V15.5662L73.6103 15.5662V6.78701L87.7921 6.78701V4.08571Z" fill="#FF5A5F"/>
<path fill-rule="evenodd" clip-rule="evenodd" d="M-6.10352e-05 14.8909V17.9299H7.76617V20.2935H3.0389V23.3325H19.7367L17.0303 26.3714H21.0997L23.8058 23.3329L23.8051 23.3323V20.2935H19.2467V17.9299H26.6747C28.0608 19.7752 30.2676 20.9688 32.7532 20.9688C36.9492 20.9688 40.3506 17.5674 40.3506 13.3714C40.3506 9.1755 36.9492 5.77403 32.7532 5.77403C29.0777 5.77403 26.0117 8.38413 25.3078 11.8519H28.4542C29.0799 10.0815 30.7684 8.81299 32.7532 8.81299C35.2708 8.81299 37.3117 10.8539 37.3117 13.3714C37.3117 15.889 35.2708 17.9299 32.7532 17.9299C30.7684 17.9299 29.0799 16.6614 28.4542 14.8909H-6.10352e-05ZM16.2077 17.9299V20.2935H10.8051V17.9299H16.2077Z" fill="#FF5A5F"/>
</svg>
