<svg width="216" height="20" viewBox="0 0 216 20" fill="none" xmlns="http://www.w3.org/2000/svg">
<path d="M10.7853 9.17885V7.1991H18.2101V5.39932H3.63294V2.3622H17.9831V0.56243H1.38506V7.1991H8.56013V9.17885H0V10.9786H19.3681V9.17885H10.7853ZM9.67272 12.5759C5.04071 12.5759 1.1353 13.4533 1.1353 16.0855C1.1353 18.7177 5.04071 19.6175 9.67272 19.6175C14.3047 19.6175 18.2101 18.7177 18.2101 16.0855C18.2101 13.4533 14.3047 12.5759 9.67272 12.5759ZM9.67272 17.8628C6.51659 17.8628 3.49671 17.4128 3.49671 16.0855C3.49671 14.7807 6.51659 14.3307 9.67272 14.3307C12.8288 14.3307 15.8487 14.7807 15.8487 16.0855C15.8487 17.4128 12.8288 17.8628 9.67272 17.8628Z" fill="#FF5A5F"/>
<path d="M41.9359 0.337457V19.5501H44.0702V0.337457H41.9359ZM37.2584 7.40158H32.1496V9.47132H37.2584V19.2126H39.3701V0.449943H37.2584V7.40158ZM28.2215 16.4229V0.989877H26.019V18.4027H30.6964C32.4448 18.4027 34.3067 18.1552 35.4647 17.6378V15.6805C34.284 16.153 32.6037 16.4229 30.9462 16.4229H28.2215Z" fill="#FF5A5F"/>
<path d="M70.4814 8.21147C75.1815 8.21147 79.087 6.99662 79.087 4.20697C79.087 1.43982 75.1815 0.224972 70.4814 0.224972C65.7813 0.224972 61.8759 1.43982 61.8759 4.20697C61.8759 6.99662 65.7813 8.21147 70.4814 8.21147ZM70.4814 2.00225C73.8646 2.00225 76.7029 2.74466 76.7029 4.20697C76.7029 5.69179 73.8646 6.4342 70.4814 6.4342C67.0982 6.4342 64.26 5.69179 64.26 4.20697C64.26 2.74466 67.0982 2.00225 70.4814 2.00225ZM80.1768 11.5186V9.67379H60.8087V11.5186H65.7132V13.9033H61.9894V15.748H76.5439V19.5726H78.8145V13.9033H75.2497V11.5186H80.1768ZM73.0245 13.9033H67.9384V11.5186H73.0245V13.9033Z" fill="#FF5A5F"/>
<path d="M106.514 8.12148H103.789V0.337457H101.541V19.5501H103.789V10.2587H106.514V8.12148ZM92.6404 0.787402C89.2345 0.787402 86.8504 3.62205 86.8504 9.71879C86.8504 15.8155 89.2345 18.6502 92.6404 18.6502C96.0236 18.6502 98.4077 15.8155 98.4077 9.71879C98.4077 3.62205 96.0236 0.787402 92.6404 0.787402ZM92.6404 16.6029C90.6196 16.6029 89.0983 14.6007 89.0983 9.71879C89.0983 4.85939 90.6196 2.83465 92.6404 2.83465C94.6385 2.83465 96.1599 4.85939 96.1599 9.71879C96.1599 14.6007 94.6385 16.6029 92.6404 16.6029Z" fill="#FF5A5F"/>
<path d="M118.569 8.27896L124.2 11.9685L125.358 10.2812L119.431 6.45669C119.659 5.75928 119.795 5.01687 119.863 4.25197H124.994V2.33971H119.84V0H117.57V2.33971H112.347V4.25197H117.592C117.274 7.46907 115.208 9.67379 112.143 10.1462V12.126C114.936 11.856 117.229 10.3937 118.569 8.27896ZM129.763 0.337457H127.515V14.6682H129.763V0.337457ZM115.594 17.3228V13.7233H113.324V19.3026H130.285V17.3228H115.594Z" fill="#FF5A5F"/>
<path d="M152.739 9.56131H155.078V0.787402H138.366V2.87964H152.739V9.56131ZM156.463 11.1586H137.095V13.2733H145.496V20H147.812V13.2733H156.463V11.1586Z" fill="#FF5A5F"/>
<path d="M178.946 7.51406L184.691 10.8886L185.758 9.20135L179.854 5.80428C180.081 5.21935 180.24 4.61192 180.331 3.982H185.417V2.11474H180.354V0H178.083V2.11474H172.952V3.982H178.038C177.584 6.65917 175.699 8.72891 172.747 9.15636V11.0911C175.426 10.7986 177.606 9.42632 178.946 7.51406ZM190.026 4.58943V0.337457H187.779V11.4511H190.026V6.72666H192.751V4.58943H190.026ZM183.533 14.2857H190.276V12.5084H173.769V14.2857H181.126C180.104 16.2655 176.97 17.4353 173.542 17.4353V19.3026C176.653 19.3026 179.741 18.5152 181.693 16.8954L190.163 19.5726L190.753 17.7278L182.965 15.4781C183.192 15.1181 183.374 14.7132 183.533 14.2857Z" fill="#FF5A5F"/>
<path d="M213.752 19.5501H216V0.337457H213.752V19.5501ZM198.812 18.3577C205.442 18.3577 209.574 13.3633 209.574 5.66929V1.03487H198.812V3.08211H207.281V5.71428C207.281 12.1485 204.102 16.2205 198.812 16.243V18.3577Z" fill="#FF5A5F"/>
</svg>
