<svg width="24" height="25" viewBox="0 0 24 25" fill="none" xmlns="http://www.w3.org/2000/svg">
<path d="M6.44784 9.46942C6.76219 6.64032 9.15349 4.5 12 4.5V4.5C14.8465 4.5 17.2378 6.64032 17.5522 9.46942L17.804 11.7356C17.8072 11.7645 17.8088 11.779 17.8104 11.7933C17.9394 12.9169 18.3051 14.0005 18.8836 14.9725C18.8909 14.9849 18.8984 14.9973 18.9133 15.0222L19.4914 15.9856C20.0159 16.8599 20.2782 17.297 20.2216 17.6559C20.1839 17.8946 20.061 18.1117 19.8757 18.2668C19.5971 18.5 19.0873 18.5 18.0678 18.5H5.93223C4.91268 18.5 4.40291 18.5 4.12434 18.2668C3.93897 18.1117 3.81609 17.8946 3.77841 17.6559C3.72179 17.297 3.98407 16.8599 4.50862 15.9856L5.08665 15.0222C5.10161 14.9973 5.10909 14.9849 5.11644 14.9725C5.69488 14.0005 6.06064 12.9169 6.18959 11.7933C6.19123 11.779 6.19283 11.7645 6.19604 11.7356L6.44784 9.46942Z" stroke="#1D1E1F" stroke-width="1.4"/>
<path d="M9.10222 18.9059C9.27315 19.6501 9.64978 20.3077 10.1737 20.7767C10.6976 21.2458 11.3396 21.5 12 21.5C12.6604 21.5 13.3024 21.2458 13.8263 20.7767C14.3502 20.3077 14.7269 19.6501 14.8978 18.9059" stroke="#1D1E1F" stroke-width="1.4" stroke-linecap="round"/>
</svg>
