<svg width="26" height="26" viewBox="0 0 26 26" fill="none" xmlns="http://www.w3.org/2000/svg">
<circle cx="7" cy="11" r="1" fill="#1D1E1F"/>
<circle cx="11" cy="11" r="1" fill="#1D1E1F"/>
<circle cx="15" cy="11" r="1" fill="#1D1E1F"/>
<path fill-rule="evenodd" clip-rule="evenodd" d="M15.0331 21.2058C10.156 21.7315 5.83302 18.7313 5.37736 14.5045C4.92171 10.2777 8.50594 6.42505 13.383 5.89929C18.26 5.37354 22.583 8.37379 23.0387 12.6006C23.2778 14.8188 22.4043 16.934 20.8151 18.5193L21.6275 21.7901C21.6842 22.0187 21.4675 22.2206 21.2435 22.1477L17.0459 20.7822C16.407 20.9862 15.7334 21.1303 15.0331 21.2058Z" fill="#FF5A5F"/>
<mask id="path-5-outside-1_1_1183" maskUnits="userSpaceOnUse" x="-1.17664" y="1.49248" width="24.0069" height="22.2315" fill="black">
<rect fill="white" x="-1.17664" y="1.49248" width="24.0069" height="22.2315"/>
<path fill-rule="evenodd" clip-rule="evenodd" d="M11.2845 19.0635C16.4191 19.0344 20.562 15.5645 20.5379 11.3133C20.5138 7.06215 16.3319 3.63948 11.1973 3.66858C6.06271 3.69768 1.91985 7.16754 1.94395 11.4187C1.95478 13.3288 2.80497 15.0716 4.20381 16.4093L3.41078 19.6102C3.35414 19.8388 3.571 20.0405 3.79494 19.9675L8.01296 18.5928C9.03164 18.9033 10.1342 19.07 11.2845 19.0635Z"/>
</mask>
<path fill-rule="evenodd" clip-rule="evenodd" d="M11.2845 19.0635C16.4191 19.0344 20.562 15.5645 20.5379 11.3133C20.5138 7.06215 16.3319 3.63948 11.1973 3.66858C6.06271 3.69768 1.91985 7.16754 1.94395 11.4187C1.95478 13.3288 2.80497 15.0716 4.20381 16.4093L3.41078 19.6102C3.35414 19.8388 3.571 20.0405 3.79494 19.9675L8.01296 18.5928C9.03164 18.9033 10.1342 19.07 11.2845 19.0635Z" fill="#FF5A5F"/>
<path d="M20.5379 11.3133L19.5379 11.319L19.5379 11.319L20.5379 11.3133ZM11.2845 19.0635L11.2902 20.0635L11.2845 19.0635ZM11.1973 3.66858L11.203 4.66856L11.1973 3.66858ZM1.94395 11.4187L0.943966 11.4244L1.94395 11.4187ZM4.20381 16.4093L5.17446 16.6497L5.31385 16.0871L4.89493 15.6865L4.20381 16.4093ZM3.41078 19.6102L4.38143 19.8506L4.38143 19.8506L3.41078 19.6102ZM3.79494 19.9675L4.10483 20.9183L4.10483 20.9183L3.79494 19.9675ZM8.01296 18.5928L8.30453 17.6362L8.00289 17.5443L7.70308 17.642L8.01296 18.5928ZM19.5379 11.319C19.5579 14.8495 16.0462 18.0365 11.2789 18.0635L11.2902 20.0635C16.7921 20.0323 21.566 16.2795 21.5379 11.3077L19.5379 11.319ZM11.203 4.66856C15.9702 4.64154 19.5179 7.78849 19.5379 11.319L21.5379 11.3077C21.5097 6.33581 16.6935 2.63741 11.1916 2.6686L11.203 4.66856ZM2.94393 11.4131C2.92392 7.88254 6.43567 4.69559 11.203 4.66856L11.1916 2.6686C5.68976 2.69978 0.915785 6.45254 0.943966 11.4244L2.94393 11.4131ZM4.89493 15.6865C3.66393 14.5094 2.95302 13.0157 2.94393 11.4131L0.943966 11.4244C0.956535 13.6419 1.94601 15.6339 3.51269 17.132L4.89493 15.6865ZM4.38143 19.8506L5.17446 16.6497L3.23316 16.1688L2.44013 19.3697L4.38143 19.8506ZM3.48506 19.0168C4.0076 18.8465 4.5136 19.3172 4.38143 19.8506L2.44013 19.3697C2.19467 20.3604 3.1344 21.2346 4.10483 20.9183L3.48506 19.0168ZM7.70308 17.642L3.48506 19.0168L4.10483 20.9183L8.32285 19.5435L7.70308 17.642ZM11.2789 18.0635C10.2287 18.0694 9.22639 17.9172 8.30453 17.6362L7.7214 19.5493C8.83689 19.8893 10.0397 20.0706 11.2902 20.0635L11.2789 18.0635Z" fill="white" mask="url(#path-5-outside-1_1_1183)"/>
<circle cx="7" cy="11" r="1" fill="white"/>
<circle cx="11" cy="11" r="1" fill="white"/>
<circle cx="15" cy="11" r="1" fill="white"/>
</svg>
