<svg width="40" height="40" viewBox="0 0 40 40" fill="none" xmlns="http://www.w3.org/2000/svg">
<circle cx="20" cy="20" r="20" fill="#3F8FF2"/>
<path fill-rule="evenodd" clip-rule="evenodd" d="M20.2041 16.4187C19.4734 15.6005 17.8184 14.0893 16.6421 14.1678C15.5999 14.2372 14.3172 15.0765 12.9272 15.9859C12.3097 16.3898 11.6711 16.8077 11.023 17.178C8.91577 18.3821 7.81201 18.6831 6.40723 18.6831C6.94238 18.9173 8.33379 19.6665 9.61816 20.7903C10.2701 21.3608 10.9055 22.0636 11.5512 22.7779C12.4957 23.8225 13.4622 24.8916 14.5349 25.6067C16.3197 26.7966 18.7904 27.5945 20.2041 27.5164C21.6178 27.5945 24.0885 26.7966 25.8733 25.6067C26.946 24.8916 27.9125 23.8225 28.8569 22.7779C29.5027 22.0636 30.1381 21.3608 30.79 20.7903C32.0744 19.6665 33.4658 18.9173 34.0009 18.6831C32.5962 18.6831 31.4924 18.3821 29.3852 17.178C28.7371 16.8077 28.0985 16.3898 27.481 15.9859C26.091 15.0765 24.8083 14.2372 23.7661 14.1678C22.5898 14.0893 20.9348 15.6005 20.2041 16.4187Z" fill="#FFD9E0"/>
<path d="M20.0537 19.9842C19.0102 19.9842 15.4714 20.6531 13.8325 20.9876C18.4081 22.272 24.1677 21.5227 26.4756 20.9876C24.7698 20.6531 21.0973 19.9842 20.0537 19.9842Z" fill="#3F8FF2"/>
</svg>
