<svg width="26" height="26" viewBox="0 0 26 26" fill="none" xmlns="http://www.w3.org/2000/svg">
<mask id="path-1-inside-1_1_659" fill="white">
<path fill-rule="evenodd" clip-rule="evenodd" d="M15.0331 21.2055C10.156 21.7313 5.83302 18.731 5.37736 14.5042C4.92171 10.2775 8.50594 6.42481 13.383 5.89905C18.26 5.37329 22.583 8.37355 23.0387 12.6003C23.2778 14.8185 22.4043 16.9337 20.8151 18.5191L21.6273 21.7894C21.6841 22.018 21.4674 22.2199 21.2434 22.147L17.0465 20.7818C16.4074 20.9858 15.7336 21.13 15.0331 21.2055Z"/>
</mask>
<path fill-rule="evenodd" clip-rule="evenodd" d="M15.0331 21.2055C10.156 21.7313 5.83302 18.731 5.37736 14.5042C4.92171 10.2775 8.50594 6.42481 13.383 5.89905C18.26 5.37329 22.583 8.37355 23.0387 12.6003C23.2778 14.8185 22.4043 16.9337 20.8151 18.5191L21.6273 21.7894C21.6841 22.018 21.4674 22.2199 21.2434 22.147L17.0465 20.7818C16.4074 20.9858 15.7336 21.13 15.0331 21.2055Z" fill="white"/>
<path d="M20.8151 18.5191L19.8446 18.7601L19.7082 18.2108L20.1089 17.8111L20.8151 18.5191ZM21.6273 21.7894L20.6568 22.0305L20.6568 22.0305L21.6273 21.7894ZM21.2434 22.147L20.934 23.098L20.934 23.098L21.2434 22.147ZM17.0465 20.7818L16.7423 19.8292L17.0493 19.7311L17.3558 19.8308L17.0465 20.7818ZM6.3716 14.3971C6.75418 17.9459 10.4596 20.6927 14.9259 20.2113L15.1402 22.1998C9.85243 22.7698 4.91186 19.5161 4.38312 14.6114L6.3716 14.3971ZM13.4902 6.89329C9.02389 7.37477 5.98903 10.8482 6.3716 14.3971L4.38312 14.6114C3.85439 9.70676 7.98799 5.47485 13.2758 4.90481L13.4902 6.89329ZM22.0444 12.7075C21.6618 9.15864 17.9564 6.41181 13.4902 6.89329L13.2758 4.90481C18.5636 4.33477 23.5042 7.58846 24.0329 12.4931L22.0444 12.7075ZM20.1089 17.8111C21.514 16.4093 22.2467 14.584 22.0444 12.7075L24.0329 12.4931C24.3089 15.0531 23.2945 17.4581 21.5214 19.227L20.1089 17.8111ZM20.6568 22.0305L19.8446 18.7601L21.7856 18.278L22.5979 21.5484L20.6568 22.0305ZM21.5527 21.1961C21.0301 21.0261 20.5244 21.4971 20.6568 22.0305L22.5979 21.5484C22.8439 22.539 21.9047 23.4137 20.934 23.098L21.5527 21.1961ZM17.3558 19.8308L21.5527 21.1961L20.934 23.098L16.7371 21.7327L17.3558 19.8308ZM14.9259 20.2113C15.5595 20.143 16.1673 20.0128 16.7423 19.8292L17.3507 21.7344C16.6476 21.9589 15.9077 22.117 15.1402 22.1998L14.9259 20.2113Z" fill="#1D1E1F" mask="url(#path-1-inside-1_1_659)"/>
<mask id="path-3-inside-2_1_659" fill="white">
<path fill-rule="evenodd" clip-rule="evenodd" d="M11.2845 19.0635C16.4191 19.0344 20.5619 15.5645 20.5378 11.3133C20.5137 7.06215 16.3318 3.63948 11.1972 3.66858C6.06267 3.69768 1.91981 7.16754 1.9439 11.4187C1.95473 13.3288 2.80491 15.0716 4.20372 16.4092L3.41077 19.6098C3.35413 19.8384 3.57099 20.0402 3.79494 19.9672L8.01236 18.5926C9.03119 18.9032 10.1339 19.07 11.2845 19.0635Z"/>
</mask>
<path fill-rule="evenodd" clip-rule="evenodd" d="M11.2845 19.0635C16.4191 19.0344 20.5619 15.5645 20.5378 11.3133C20.5137 7.06215 16.3318 3.63948 11.1972 3.66858C6.06267 3.69768 1.91981 7.16754 1.9439 11.4187C1.95473 13.3288 2.80491 15.0716 4.20372 16.4092L3.41077 19.6098C3.35413 19.8384 3.57099 20.0402 3.79494 19.9672L8.01236 18.5926C9.03119 18.9032 10.1339 19.07 11.2845 19.0635Z" fill="white"/>
<path d="M20.5378 11.3133L19.5378 11.319L19.5378 11.319L20.5378 11.3133ZM11.2845 19.0635L11.2788 18.0635L11.2845 19.0635ZM11.1972 3.66858L11.2029 4.66856L11.1972 3.66858ZM1.9439 11.4187L0.94392 11.4244L1.9439 11.4187ZM4.20372 16.4092L5.17437 16.6497L5.31377 16.0871L4.89484 15.6865L4.20372 16.4092ZM3.41077 19.6098L4.38143 19.8503L4.38143 19.8503L3.41077 19.6098ZM3.79494 19.9672L4.10482 20.9179L4.10482 20.9179L3.79494 19.9672ZM8.01236 18.5926L8.30397 17.636L8.00231 17.5441L7.70247 17.6418L8.01236 18.5926ZM19.5378 11.319C19.5579 14.8495 16.0461 18.0365 11.2788 18.0635L11.2902 20.0635C16.792 20.0323 21.566 16.2795 21.5378 11.3077L19.5378 11.319ZM11.2029 4.66856C15.9702 4.64154 19.5178 7.78849 19.5378 11.319L21.5378 11.3077C21.5096 6.33581 16.6934 2.63741 11.1916 2.6686L11.2029 4.66856ZM2.94389 11.4131C2.92388 7.88254 6.43562 4.69559 11.2029 4.66856L11.1916 2.6686C5.68971 2.69978 0.915739 6.45254 0.94392 11.4244L2.94389 11.4131ZM4.89484 15.6865C3.66387 14.5094 2.95297 13.0157 2.94389 11.4131L0.94392 11.4244C0.956489 13.6419 1.94594 15.6338 3.5126 17.132L4.89484 15.6865ZM4.38143 19.8503L5.17437 16.6497L3.23307 16.1687L2.44012 19.3693L4.38143 19.8503ZM3.48505 19.0164C4.00759 18.8461 4.5136 19.3168 4.38143 19.8503L2.44012 19.3693C2.19466 20.36 3.13439 21.2342 4.10482 20.9179L3.48505 19.0164ZM7.70247 17.6418L3.48505 19.0164L4.10482 20.9179L8.32224 19.5434L7.70247 17.6418ZM11.2788 18.0635C10.2285 18.0694 9.22598 17.9171 8.30397 17.636L7.72074 19.5491C8.83641 19.8893 10.0394 20.0706 11.2902 20.0635L11.2788 18.0635Z" fill="#1D1E1F" mask="url(#path-3-inside-2_1_659)"/>
</svg>
