<svg width="24" height="24" viewBox="0 0 24 24" fill="none" xmlns="http://www.w3.org/2000/svg">
<mask id="mask0_1_297" style="mask-type:alpha" maskUnits="userSpaceOnUse" x="0" y="0" width="24" height="24">
<rect width="24" height="24" fill="#D9D9D9"/>
</mask>
<g mask="url(#mask0_1_297)">
<path d="M12 13.05L6.92502 18.125C6.79169 18.2583 6.62102 18.329 6.41302 18.337C6.20436 18.3457 6.02502 18.275 5.87502 18.125C5.72502 17.975 5.65002 17.8 5.65002 17.6C5.65002 17.4 5.72502 17.225 5.87502 17.075L10.95 12L5.87502 6.92499C5.74169 6.79166 5.67102 6.62066 5.66302 6.41199C5.65436 6.20399 5.72502 6.02499 5.87502 5.87499C6.02502 5.72499 6.20002 5.64999 6.40002 5.64999C6.60002 5.64999 6.77502 5.72499 6.92502 5.87499L12 10.95L17.075 5.87499C17.2084 5.74166 17.3794 5.67066 17.588 5.66199C17.796 5.65399 17.975 5.72499 18.125 5.87499C18.275 6.02499 18.35 6.19999 18.35 6.39999C18.35 6.59999 18.275 6.77499 18.125 6.92499L13.05 12L18.125 17.075C18.2584 17.2083 18.329 17.379 18.337 17.587C18.3457 17.7957 18.275 17.975 18.125 18.125C17.975 18.275 17.8 18.35 17.6 18.35C17.4 18.35 17.225 18.275 17.075 18.125L12 13.05Z" fill="#1D1E1F"/>
</g>
</svg>
