<svg width="24" height="24" viewBox="0 0 24 24" fill="none" xmlns="http://www.w3.org/2000/svg">
<path d="M5.97822 19.477L5.97823 19.477L6.00872 19.4694L8.63235 18.8135C8.6493 18.8092 8.66631 18.805 8.68337 18.8008C8.89887 18.7473 9.1224 18.6918 9.32634 18.5764C9.53027 18.4609 9.69283 18.2978 9.84955 18.1405C9.86196 18.128 9.87433 18.1156 9.88669 18.1033L17.0808 10.9092L17.0808 10.9092L17.1109 10.8791C17.4183 10.5717 17.6968 10.2933 17.8923 10.037C18.1065 9.75633 18.2858 9.4217 18.2858 9C18.2858 8.5783 18.1065 8.24367 17.8923 7.96296C17.6968 7.70674 17.4183 7.42829 17.1109 7.12091L17.0808 7.09081L16.5858 7.58579L17.0808 7.09081L16.9092 6.91924L16.8791 6.88912C16.5717 6.58168 16.2933 6.30318 16.037 6.1077C15.7563 5.89352 15.4217 5.71421 15 5.71421C14.5783 5.71421 14.2437 5.89352 13.963 6.1077C13.7067 6.30319 13.4283 6.58168 13.1209 6.88913L13.0908 6.91924L13.5731 7.40152L13.0908 6.91924L5.89674 14.1133C5.88438 14.1257 5.87197 14.138 5.85951 14.1505C5.70223 14.3072 5.53909 14.4697 5.42362 14.6737C5.30816 14.8776 5.2527 15.1011 5.19924 15.3166C5.195 15.3337 5.19078 15.3507 5.18654 15.3677L4.52301 18.0218C4.52046 18.032 4.51785 18.0424 4.51521 18.0529C4.47714 18.2047 4.43167 18.386 4.41641 18.5421C4.39924 18.7176 4.39868 19.055 4.67184 19.3282C4.945 19.6013 5.28241 19.6008 5.45793 19.5836C5.61397 19.5683 5.79528 19.5229 5.94709 19.4848C5.95761 19.4821 5.96799 19.4795 5.97822 19.477Z" stroke="white" stroke-width="1.4"/>
<path d="M12.5 7.5L15.5 5.5L18.5 8.5L16.5 11.5L12.5 7.5Z" fill="white"/>
</svg>
