<svg width="26" height="26" viewBox="0 0 26 26" fill="none" xmlns="http://www.w3.org/2000/svg">
<path fill-rule="evenodd" clip-rule="evenodd" d="M13 17.0419L13.8995 18.8934C14.5063 20.1425 15.7855 21 17.2632 21C19.327 21 21 19.327 21 17.2632C21 15.7855 20.1425 14.5063 18.8934 13.8995L17.0419 13L18.8934 12.1005C20.1425 11.4937 21 10.2145 21 8.73684C21 6.67304 19.327 5 17.2632 5C15.7855 5 14.5063 5.85754 13.8995 7.10659L13 8.95812L12.1005 7.10659C11.4937 5.85754 10.2145 5 8.73684 5C6.67304 5 5 6.67304 5 8.73684C5 10.2145 5.85754 11.4937 7.10659 12.1005L8.95812 13L7.10659 13.8995C5.85754 14.5063 5 15.7855 5 17.2632C5 19.327 6.67304 21 8.73684 21C10.2145 21 11.4937 20.1425 12.1005 18.8934L13 17.0419ZM5.71585 13.6145C4.66765 14.4834 4 15.7953 4 17.2632C4 19.8792 6.12076 22 8.73684 22C10.2047 22 11.5166 21.3323 12.3855 20.2842C12.6264 19.9935 12.8333 19.6735 13 19.3304C13.1667 19.6735 13.3736 19.9935 13.6145 20.2842C14.4834 21.3323 15.7953 22 17.2632 22C19.8792 22 22 19.8792 22 17.2632C22 15.7953 21.3323 14.4834 20.2842 13.6145C19.9935 13.3736 19.6735 13.1667 19.3304 13C19.6735 12.8333 19.9935 12.6264 20.2842 12.3855C21.3323 11.5166 22 10.2047 22 8.73684C22 6.12076 19.8792 4 17.2632 4C15.7953 4 14.4834 4.66765 13.6145 5.71585C13.3736 6.00655 13.1667 6.32651 13 6.66963C12.8333 6.32651 12.6264 6.00655 12.3855 5.71585C11.5166 4.66765 10.2047 4 8.73684 4C6.12076 4 4 6.12076 4 8.73684C4 10.2047 4.66765 11.5166 5.71585 12.3855C6.00655 12.6264 6.32651 12.8333 6.66963 13C6.32651 13.1667 6.00655 13.3736 5.71585 13.6145Z" fill="#1D1E1F"/>
<circle cx="13" cy="13" r="1" fill="#1D1E1F"/>
</svg>
