<svg width="26" height="26" viewBox="0 0 26 26" fill="none" xmlns="http://www.w3.org/2000/svg">
<path fill-rule="evenodd" clip-rule="evenodd" d="M8.73684 22C10.6118 22 12.2323 20.9107 13 19.3304C13.7677 20.9107 15.3882 22 17.2632 22C19.8792 22 22 19.8792 22 17.2632C22 15.3882 20.9107 13.7677 19.3304 13C20.9107 12.2323 22 10.6118 22 8.73684C22 6.12076 19.8792 4 17.2632 4C15.3882 4 13.7677 5.08933 13 6.66963C12.2323 5.08933 10.6118 4 8.73684 4C6.12076 4 4 6.12076 4 8.73684C4 10.6118 5.08933 12.2323 6.66963 13C5.08933 13.7677 4 15.3882 4 17.2632C4 19.8792 6.12076 22 8.73684 22Z" fill="#FF5A5F"/>
<circle cx="13" cy="13" r="1" fill="white"/>
</svg>
