<svg width="26" height="26" viewBox="0 0 26 26" fill="none" xmlns="http://www.w3.org/2000/svg">
<mask id="path-1-inside-1_2_21" fill="white">
<path fill-rule="evenodd" clip-rule="evenodd" d="M4.59386 7.64174C4.23273 7.80225 4 8.16037 4 8.55556V20.9057C4 21.458 4.44772 21.9057 5 21.9057H11V14.9057H15V21.9057H21C21.5523 21.9057 22 21.458 22 20.9057V8.55556C22 8.16037 21.7673 7.80224 21.4061 7.64174L13.4061 4.08619C13.1476 3.97127 12.8524 3.97127 12.5939 4.08619L4.59386 7.64174Z"/>
</mask>
<path d="M4.59386 7.64174L5 8.55556H5L4.59386 7.64174ZM11 21.9057V22.9057H12V21.9057H11ZM11 14.9057V13.9057H10V14.9057H11ZM15 14.9057H16V13.9057H15V14.9057ZM15 21.9057H14V22.9057H15V21.9057ZM21.4061 7.64174L21 8.55556H21L21.4061 7.64174ZM13.4061 4.08619L13 5L13 5L13.4061 4.08619ZM12.5939 4.08619L12.1877 3.17238L12.1877 3.17238L12.5939 4.08619ZM5 8.55556H5L4.18772 6.72793C3.46547 7.04893 3 7.76518 3 8.55556H5ZM5 20.9057V8.55556H3V20.9057H5ZM5 20.9057H5H3C3 22.0103 3.89543 22.9057 5 22.9057V20.9057ZM11 20.9057H5V22.9057H11V20.9057ZM12 21.9057V14.9057H10V21.9057H12ZM11 15.9057H15V13.9057H11V15.9057ZM14 14.9057V21.9057H16V14.9057H14ZM21 20.9057H15V22.9057H21V20.9057ZM21 20.9057V22.9057C22.1046 22.9057 23 22.0103 23 20.9057H21ZM21 8.55556V20.9057H23V8.55556H21ZM21 8.55556V8.55556H23C23 7.76518 22.5345 7.04893 21.8123 6.72793L21 8.55556ZM13 5L21 8.55556L21.8123 6.72793L13.8123 3.17238L13 5ZM13 5L13 5L13.8123 3.17238C13.2951 2.94254 12.7049 2.94254 12.1877 3.17238L13 5ZM5 8.55556L13 5L12.1877 3.17238L4.18772 6.72793L5 8.55556Z" fill="#1D1E1F" mask="url(#path-1-inside-1_2_21)"/>
</svg>
