<svg width="26" height="26" viewBox="0 0 26 26" fill="none" xmlns="http://www.w3.org/2000/svg">
<mask id="path-1-inside-1_1_612" fill="white">
<path fill-rule="evenodd" clip-rule="evenodd" d="M21.9468 20.792C22.1599 21.3991 21.6826 21.9999 21.0392 21.9999H4.95906C4.31563 21.9999 3.83833 21.3991 4.05147 20.792C5.44709 16.8166 8.92705 14 12.9991 14C17.0712 14 20.5512 16.8166 21.9468 20.792Z"/>
</mask>
<path d="M21.0392 20.9999H4.95906V22.9999H21.0392V20.9999ZM4.99501 21.1233C6.27315 17.4825 9.41759 15 12.9991 15V13C8.43652 13 4.62103 16.1507 3.10792 20.4608L4.99501 21.1233ZM12.9991 15C16.5807 15 19.7251 17.4825 21.0033 21.1233L22.8903 20.4608C21.3772 16.1507 17.5618 13 12.9991 13V15ZM4.95906 20.9999C4.95473 20.9999 4.96568 20.9996 4.97804 21.0157C4.98467 21.0244 4.99369 21.0404 4.99787 21.0643C5.00248 21.0906 4.99872 21.1127 4.99501 21.1233L3.10792 20.4608C2.63869 21.7974 3.71249 22.9999 4.95906 22.9999V20.9999ZM21.0392 22.9999C22.2858 22.9999 23.3596 21.7974 22.8903 20.4608L21.0033 21.1233C20.9995 21.1127 20.9958 21.0906 21.0004 21.0643C21.0046 21.0404 21.0136 21.0244 21.0202 21.0157C21.0326 20.9996 21.0435 20.9999 21.0392 20.9999V22.9999Z" fill="#1D1E1F" mask="url(#path-1-inside-1_1_612)"/>
<circle cx="13" cy="9" r="4.5" stroke="#1D1E1F"/>
</svg>
