<svg width="40" height="40" viewBox="0 0 40 40" fill="none" xmlns="http://www.w3.org/2000/svg">
<circle cx="20" cy="20" r="20" fill="#FFD160"/>
<path fill-rule="evenodd" clip-rule="evenodd" d="M22.6944 17.0336L22.7217 17.0494L27.1718 19.6187C29.189 22.5013 26.0484 24.8043 25.1803 25.4409C25.1303 25.4775 25.0878 25.5087 25.0544 25.5341C24.4389 26.0007 22.5935 28.223 22.6754 29.6546C22.7573 31.0862 21.6591 34.5618 19.2688 34.9555C17.3639 35.2692 14.7193 33.6418 13.6218 32.7793C12.3262 32.2601 9.59452 30.7835 8.91373 28.977C8.0595 26.7101 10.5204 24.0212 11.8012 23.3764C13.0819 22.7315 14.0838 20.0221 14.1801 19.2558C14.1854 19.2141 14.1911 19.1618 14.1979 19.1002C14.3151 18.0301 14.7392 14.1588 18.2443 14.4644L22.6944 17.0336Z" fill="#B3D9FC"/>
<path fill-rule="evenodd" clip-rule="evenodd" d="M26.1312 8.67055C26.4526 7.96284 26.8484 7.09166 28.1659 7.55982C29.23 8.46672 28.6734 9.24502 28.2213 9.87727C28.2053 9.8996 28.1895 9.92176 28.1738 9.94373C27.7156 10.5876 27.3958 11.4412 27.4292 12.2825C27.448 12.7565 27.7193 13.1977 27.9753 13.614C28.1736 13.9366 28.3628 14.2442 28.4182 14.5406C28.4779 14.8593 28.3411 15.1738 28.2894 15.2882L27.5963 16.4887L24.1572 14.5031L20.718 12.5174L21.4111 11.317C21.4844 11.2151 21.6883 10.9393 21.9941 10.8317C22.2786 10.7315 22.6396 10.7415 23.0181 10.7519C23.5066 10.7655 24.0243 10.7798 24.4443 10.5591C25.1895 10.1674 25.7689 9.46368 26.0973 8.74487C26.1086 8.72034 26.1198 8.69555 26.1312 8.67055Z" fill="#CDF6E8"/>
<path d="M18.8851 12.8437C19.2989 12.1269 20.2154 11.8814 20.9321 12.2952L27.6807 16.1915C28.3974 16.6053 28.643 17.5218 28.2292 18.2385L27.2926 19.8608L17.9484 14.4659L18.8851 12.8437Z" fill="#3F8FF2"/>
<path fill-rule="evenodd" clip-rule="evenodd" d="M22.4143 21.7169L23.0138 20.6787L20.4831 19.2176L19.9639 18.9179L19.4448 18.6182L13.3007 29.2601L13.8198 29.5598L14.3389 29.8595L16.8696 31.3207L17.4691 30.2824L14.9384 28.8213L15.7251 27.4586L17.4771 28.4702L18.0766 27.4319L16.3245 26.4204L17.1113 25.0577L18.8633 26.0692L19.4627 25.031L17.7107 24.0194L18.4975 22.6568L20.2495 23.6683L20.8489 22.6301L19.0969 21.6185L19.8836 20.2558L22.4143 21.7169Z" fill="#3F8FF2"/>
</svg>
